# File created by Blade
# Date/Time:  Wed Sep 24 19:10:19 2014
# Frame Rate: 120.000 fps
#------------------------------------------------------
:FULLY-SPECIFIED
:DEGREES
1121
root -8.016123 33.222783 -4.922941 2.132736 7.024561 11.152925
Spine -1.328446 6.159556 -7.749937
Head 3.881137 -11.286949 4.810360
LeftShoulder -6.880555 13.145107 15.619854
LeftArm 24.292307 -22.835259 -67.459067
LeftForeArm 7.060464 -0.000000 63.483903
LeftHand -36.824396 0.000000 52.342268
LeftHandThumb1 -26.253704 0.000000 33.147579
RightShoulder -17.283860 10.539530 -18.299294
RightArm -14.859341 -27.103284 90.874626
RightForeArm -21.270504 -0.000000 23.292927
RightHand -4.693655 -0.000000 10.767124
RightHandThumb1 -24.326973 -0.000000 -32.862282
LeftUpLeg -87.443445 6.980355 -3.222884
LeftLeg 9.560893 -0.000000 -0.000000
LeftFoot 37.860254 12.656068 -14.091488
LeftToeBase 9.296894 -0.000000 -0.000000
RightUpLeg -8.192826 -10.948655 -4.633064
RightLeg 16.376292 -0.000000 -0.000000
RightFoot -12.537856 -11.544064 -6.428784
RightToeBase 0.110058 -0.000000 -0.000000
1122
root -8.008051 33.221858 -4.922371 2.099457 6.941593 11.152577
Spine -1.301538 6.170719 -7.719946
Head 3.789492 -11.215176 4.791688
LeftShoulder -6.879933 13.181945 15.629844
LeftArm 24.287168 -22.847658 -67.550116
LeftForeArm 7.095613 -0.000000 63.534753
LeftHand -36.782935 -0.000000 52.299040
LeftHandThumb1 -26.253704 0.000000 33.147579
RightShoulder -17.269252 10.559283 -18.287518
RightArm -14.865277 -27.151966 90.841945
RightForeArm -21.160362 -0.000000 23.285181
RightHand -4.718471 -0.000000 10.765163
RightHandThumb1 -24.326973 -0.000000 -32.862282
LeftUpLeg -87.373572 6.973300 -3.003029
LeftLeg 9.813975 -0.000000 -0.000000
LeftFoot 37.846995 12.782302 -14.085907
LeftToeBase 9.263283 -0.000000 -0.000000
RightUpLeg -8.174020 -10.864502 -4.664050
RightLeg 16.390840 -0.000000 -0.000000
RightFoot -12.564457 -11.496479 -6.386543
RightToeBase 0.083138 -0.000000 -0.000000
1123
root -8.000700 33.220422 -4.921219 2.069280 6.851943 11.160168
Spine -1.280886 6.193914 -7.714091
Head 3.697346 -11.170430 4.810294
LeftShoulder -6.837764 13.207388 15.682321
LeftArm 24.228833 -22.883689 -67.635403
LeftForeArm 7.115071 -0.000000 63.583698
LeftHand -36.753430 -0.000000 52.317443
LeftHandThumb1 -26.253704 0.000000 33.147579
RightShoulder -17.286320 10.546816 -18.268711
RightArm -14.823178 -27.205034 90.799059
RightForeArm -21.056564 -0.000000 23.269157
RightHand -4.755269 -0.000000 10.772330
RightHandThumb1 -24.326973 -0.000000 -32.862282
LeftUpLeg -87.277027 6.973171 -2.734545
LeftLeg 10.073816 -0.000000 -0.000000
LeftFoot 37.769169 12.921249 -14.087271
LeftToeBase 9.113741 -0.000000 -0.000000
RightUpLeg -8.163548 -10.823978 -4.690861
RightLeg 16.411232 -0.000000 -0.000000
RightFoot -12.586420 -11.457485 -6.403830
RightToeBase 0.047335 -0.000000 -0.000000
1124
root -7.994484 33.219472 -4.921346 2.049131 6.748239 11.177305
Spine -1.266566 6.200977 -7.735115
Head 3.620685 -11.098142 4.857487
LeftShoulder -6.831349 13.245562 15.718292
LeftArm 24.229333 -22.977083 -67.743207
LeftForeArm 7.198521 0.000000 63.572661
LeftHand -36.709537 0.000000 52.408670
LeftHandThumb1 -26.253704 0.000000 33.147579
RightShoulder -17.282931 10.542982 -18.212443
RightArm -14.772171 -27.231469 90.730849
RightForeArm -21.017507 -0.000000 23.268680
RightHand -4.845598 -0.000000 10.686711
RightHandThumb1 -24.326973 -0.000000 -32.862282
LeftUpLeg -87.146515 6.987400 -2.485424
LeftLeg 10.265524 -0.000000 -0.000000
LeftFoot 37.842806 13.044813 -13.927085
LeftToeBase 8.820326 -0.000000 -0.000000
RightUpLeg -8.170317 -10.794231 -4.717963
RightLeg 16.436039 -0.000000 -0.000000
RightFoot -12.605442 -11.420315 -6.456372
RightToeBase 0.055472 -0.000000 -0.000000
1125
root -7.987700 33.218739 -4.923675 2.047693 6.656565 11.207991
Spine -1.273936 6.189625 -7.770742
Head 3.565341 -11.035532 4.902609
LeftShoulder -6.783002 13.227250 15.751615
LeftArm 24.137290 -23.058247 -67.774921
LeftForeArm 7.227743 -0.000000 63.571573
LeftHand -36.669423 0.000000 52.538345
LeftHandThumb1 -26.253704 0.000000 33.147579
RightShoulder -17.278150 10.528629 -18.165797
RightArm -14.678748 -27.159068 90.651485
RightForeArm -21.114629 -0.000000 23.211765
RightHand -4.862501 -0.000000 10.677096
RightHandThumb1 -24.326973 -0.000000 -32.862282
LeftUpLeg -86.993046 6.988087 -2.241652
LeftLeg 10.423238 -0.000000 -0.000000
LeftFoot 37.726040 13.298322 -14.130759
LeftToeBase 9.114967 -0.000000 -0.000000
RightUpLeg -8.206187 -10.793477 -4.755134
RightLeg 16.481300 -0.000000 -0.000000
RightFoot -12.622695 -11.366925 -6.550334
RightToeBase 0.095407 -0.000000 -0.000000
1126
root -7.980126 33.218457 -4.926742 2.061842 6.564173 11.241646
Spine -1.300119 6.166655 -7.826460
Head 3.515352 -10.982909 4.998123
LeftShoulder -6.748832 13.218526 15.799517
LeftArm 24.066603 -23.126505 -67.822203
LeftForeArm 7.254470 -0.000000 63.582700
LeftHand -36.734089 -0.000000 52.678467
LeftHandThumb1 -26.253704 0.000000 33.147579
RightShoulder -17.306619 10.489217 -18.094511
RightArm -14.607930 -27.301025 90.580612
RightForeArm -21.066024 -0.000000 23.270193
RightHand -5.003065 -0.000000 10.547143
RightHandThumb1 -24.326973 -0.000000 -32.862282
LeftUpLeg -86.856209 6.995146 -2.064408
LeftLeg 10.594444 -0.000000 -0.000000
LeftFoot 37.709090 13.299199 -14.233602
LeftToeBase 9.313040 -0.000000 -0.000000
RightUpLeg -8.262357 -10.776654 -4.789357
RightLeg 16.532560 -0.000000 -0.000000
RightFoot -12.638649 -11.354044 -6.615184
RightToeBase 0.114865 -0.000000 -0.000000
1127
root -7.971591 33.219177 -4.930104 2.077153 6.489553 11.291002
Spine -1.327686 6.123141 -7.894308
Head 3.495205 -10.921281 5.076155
LeftShoulder -6.682064 13.171600 15.835361
LeftArm 23.937048 -23.238899 -67.833198
LeftForeArm 7.228598 -0.000000 63.576038
LeftHand -36.761320 -0.000000 53.001552
LeftHandThumb1 -26.253704 0.000000 33.147579
RightShoulder -17.312537 10.491429 -18.046940
RightArm -14.581502 -27.321031 90.538687
RightForeArm -21.057418 -0.000000 23.300156
RightHand -5.081392 -0.000000 10.420686
RightHandThumb1 -24.326973 -0.000000 -32.862282
LeftUpLeg -86.693247 6.983421 -1.990956
LeftLeg 10.712163 -0.000000 -0.000000
LeftFoot 37.783702 13.199830 -14.217001
LeftToeBase 9.250350 -0.000000 -0.000000
RightUpLeg -8.325875 -10.786024 -4.843057
RightLeg 16.604631 -0.000000 -0.000000
RightFoot -12.661250 -11.331256 -6.709536
RightToeBase 0.108231 -0.000000 -0.000000
1128
root -7.963683 33.219988 -4.932917 2.093272 6.445959 11.326776
Spine -1.363609 6.038773 -7.935987
Head 3.502948 -10.856947 5.101970
LeftShoulder -6.617689 13.167883 15.848037
LeftArm 23.845493 -23.387796 -67.855713
LeftForeArm 7.355764 -0.000000 63.554227
LeftHand -36.799642 -0.000000 52.902223
LeftHandThumb1 -26.253704 0.000000 33.147579
RightShoulder -17.301970 10.498855 -18.030016
RightArm -14.571107 -27.287573 90.522893
RightForeArm -21.044161 -0.000000 23.318782
RightHand -5.067482 -0.000000 10.308332
RightHandThumb1 -24.326973 -0.000000 -32.862282
LeftUpLeg -86.544417 6.955018 -2.025597
LeftLeg 10.830326 -0.000000 -0.000000
LeftFoot 37.900607 13.053801 -14.138076
LeftToeBase 9.113948 -0.000000 -0.000000
RightUpLeg -8.378179 -10.761321 -4.883357
RightLeg 16.663881 -0.000000 -0.000000
RightFoot -12.658856 -11.339975 -6.751580
RightToeBase 0.150328 -0.000000 -0.000000
1129
root -7.955575 33.221321 -4.935475 2.119559 6.417715 11.360847
Spine -1.407802 5.938888 -7.972096
Head 3.517901 -10.807424 5.120267
LeftShoulder -6.580733 13.208036 15.874679
LeftArm 23.799092 -23.492798 -67.898851
LeftForeArm 7.360744 -0.000000 63.520776
LeftHand -36.780652 -0.000000 52.989570
LeftHandThumb1 -26.253704 0.000000 33.147579
RightShoulder -17.313184 10.500428 -18.028312
RightArm -14.536508 -27.219082 90.497454
RightForeArm -21.042791 -0.000000 23.330074
RightHand -5.080823 -0.000000 10.316410
RightHandThumb1 -24.326973 -0.000000 -32.862282
LeftUpLeg -86.380450 6.918973 -2.147503
LeftLeg 10.902630 -0.000000 -0.000000
LeftFoot 37.973506 12.950773 -14.102739
LeftToeBase 8.992937 -0.000000 -0.000000
RightUpLeg -8.434509 -10.691342 -4.922273
RightLeg 16.715114 -0.000000 -0.000000
RightFoot -12.647429 -11.420459 -6.796945
RightToeBase 0.135555 -0.000000 -0.000000
1130
root -7.949643 33.223373 -4.935085 2.120181 6.414476 11.384916
Spine -1.432661 5.812227 -7.993552
Head 3.561004 -10.743991 5.112775
LeftShoulder -6.528501 13.274336 15.920697
LeftArm 23.796349 -23.650851 -68.017245
LeftForeArm 7.450528 -0.000000 63.451478
LeftHand -36.831073 -0.000000 53.122622
LeftHandThumb1 -26.253704 0.000000 33.147579
RightShoulder -17.296032 10.519378 -18.036929
RightArm -14.549287 -27.141043 90.500349
RightForeArm -21.052012 -0.000000 23.364429
RightHand -5.065242 -0.000000 10.387864
RightHandThumb1 -24.326973 -0.000000 -32.862282
LeftUpLeg -86.223115 6.886071 -2.400118
LeftLeg 11.027807 -0.000000 -0.000000
LeftFoot 37.996863 12.762482 -14.020926
LeftToeBase 9.120007 -0.000000 -0.000000
RightUpLeg -8.443066 -10.621132 -4.957834
RightLeg 16.739885 -0.000000 -0.000000
RightFoot -12.640415 -11.472518 -6.749882
RightToeBase 0.112868 -0.000000 -0.000000
1131
root -7.943779 33.224824 -4.934734 2.125224 6.428933 11.396599
Spine -1.453194 5.676508 -7.990746
Head 3.578165 -10.682982 5.087334
LeftShoulder -6.449825 13.181121 15.928314
LeftArm 23.547672 -23.715437 -67.935080
LeftForeArm 7.486868 -0.000000 63.487515
LeftHand -36.825178 0.000000 53.216677
LeftHandThumb1 -26.253704 0.000000 33.147579
RightShoulder -17.293450 10.543529 -18.068557
RightArm -14.575291 -27.068995 90.501727
RightForeArm -21.069294 -0.000000 23.437564
RightHand -5.071192 -0.000000 10.468612
RightHandThumb1 -24.326973 -0.000000 -32.862282
LeftUpLeg -86.046562 6.830791 -2.584617
LeftLeg 11.141183 -0.000000 -0.000000
LeftFoot 38.037265 12.657813 -13.960639
LeftToeBase 9.115926 -0.000000 -0.000000
RightUpLeg -8.453116 -10.567791 -4.980772
RightLeg 16.765056 -0.000000 -0.000000
RightFoot -12.636034 -11.517356 -6.697287
RightToeBase 0.164130 -0.000000 -0.000000
1132
root -7.940629 33.226044 -4.931354 2.114596 6.445739 11.385935
Spine -1.454981 5.548803 -7.961556
Head 3.566762 -10.642096 5.043766
LeftShoulder -6.430054 13.149209 15.932972
LeftArm 23.448196 -23.784365 -67.937287
LeftForeArm 7.535867 -0.000000 63.443019
LeftHand -36.801938 -0.000000 53.186471
LeftHandThumb1 -26.253704 0.000000 33.147579
RightShoulder -17.306486 10.535770 -18.105346
RightArm -14.569284 -27.013013 90.502950
RightForeArm -21.071153 -0.000000 23.513138
RightHand -5.042654 -0.000000 10.491326
RightHandThumb1 -24.326973 -0.000000 -32.862282
LeftUpLeg -85.887665 6.791110 -2.854278
LeftLeg 11.319494 -0.000000 -0.000000
LeftFoot 38.309857 12.269334 -13.635456
LeftToeBase 8.394188 -0.000000 -0.000000
RightUpLeg -8.433066 -10.476460 -4.983998
RightLeg 16.765933 -0.000000 -0.000000
RightFoot -12.622041 -11.570028 -6.615482
RightToeBase 0.162463 -0.000000 -0.000000
